<svg width="126" height="79" viewBox="0 0 126 79" fill="none" xmlns="http://www.w3.org/2000/svg">
<ellipse cx="70.5" cy="39.5" rx="55.5" ry="39.5" fill="#081217"/>
<path d="M0.750001 76.1913L28.0298 46.9413L39.7211 67.1913L0.750001 76.1913Z" fill="#081217"/>
<path d="M41.352 49.864C39.048 49.864 37.2 49.276 35.808 48.1C34.416 46.924 33.72 45.172 33.72 42.844C33.72 41.74 33.936 40.72 34.368 39.784C34.824 38.824 35.604 38.248 36.708 38.056C36.588 38.416 36.528 38.824 36.528 39.28C36.528 40.024 36.624 40.864 36.816 41.8C37.032 42.712 37.248 43.504 37.464 44.176C37.8 45.136 38.256 45.964 38.832 46.66C39.432 47.332 40.068 47.86 40.74 48.244C41.436 48.604 42.06 48.784 42.612 48.784C43.14 48.784 43.56 48.628 43.872 48.316C44.208 47.98 44.376 47.44 44.376 46.696C44.376 45.76 44.124 44.848 43.62 43.96C43.116 43.048 42.516 42.136 41.82 41.224C41.124 40.312 40.464 39.4 39.84 38.488C39.36 37.744 38.952 36.988 38.616 36.22C38.28 35.428 38.112 34.624 38.112 33.808C38.112 32.512 38.4 31.42 38.976 30.532C39.552 29.62 40.32 28.936 41.28 28.48C42.264 28 43.356 27.76 44.556 27.76C45.108 27.76 45.72 27.796 46.392 27.868C47.064 27.94 47.7 28.096 48.3 28.336L48.84 28.552C49.32 27.856 49.86 27.364 50.46 27.076C51.06 26.788 51.588 26.644 52.044 26.644C52.404 26.644 52.692 26.716 52.908 26.86C53.148 26.98 53.268 27.148 53.268 27.364C53.268 27.58 53.148 27.796 52.908 28.012C51.972 28.9 51.24 29.74 50.712 30.532C50.184 31.3 49.68 32.188 49.2 33.196C48.744 34.18 48.48 35.176 48.408 36.184C48.264 36.232 48.168 36.256 48.12 36.256C47.856 36.256 47.664 36.076 47.544 35.716C47.424 35.332 47.364 34.852 47.364 34.276C47.364 33.604 47.436 32.872 47.58 32.08C47.724 31.264 47.916 30.544 48.156 29.92C48.012 29.776 47.82 29.656 47.58 29.56C47.34 29.44 47.064 29.38 46.752 29.38C46.176 29.38 45.648 29.608 45.168 30.064C44.688 30.52 44.292 31.084 43.98 31.756C43.692 32.404 43.548 33.04 43.548 33.664C43.548 34.48 43.728 35.296 44.088 36.112C44.472 36.928 44.928 37.732 45.456 38.524C46.008 39.316 46.524 40.108 47.004 40.9C47.436 41.644 47.748 42.352 47.94 43.024C48.156 43.672 48.264 44.284 48.264 44.86C48.264 46.396 47.628 47.62 46.356 48.532C45.108 49.42 43.44 49.864 41.352 49.864ZM52.9938 49.216C51.8178 49.216 50.9898 48.952 50.5098 48.424C50.0538 47.872 49.8258 47.188 49.8258 46.372C49.8258 45.508 49.9818 44.584 50.2938 43.6C50.6298 42.592 51.0018 41.668 51.4098 40.828C51.8418 39.964 52.1778 39.304 52.4178 38.848C53.4018 37.024 54.5298 35.692 55.8018 34.852C57.0978 34.012 58.5258 33.592 60.0858 33.592C60.6378 33.592 61.2858 33.616 62.0298 33.664C62.7738 33.712 63.5298 33.736 64.2978 33.736C64.6818 33.736 65.0538 33.724 65.4138 33.7C65.7738 33.676 66.1218 33.664 66.4578 33.664H66.6018C67.0098 33.664 67.2138 33.736 67.2138 33.88C67.2138 33.976 67.0698 34.084 66.7818 34.204C66.4698 34.324 66.0978 34.732 65.6658 35.428C65.2338 36.1 64.7898 36.916 64.3338 37.876C63.8778 38.836 63.4458 39.808 63.0378 40.792C62.8218 41.344 62.5338 42.088 62.1738 43.024C61.8138 43.936 61.5498 44.872 61.3818 45.832C61.3578 46 61.3338 46.156 61.3098 46.3C61.3098 46.42 61.3098 46.54 61.3098 46.66C61.3098 47.26 61.4658 47.56 61.7778 47.56C62.1618 47.56 62.5578 47.356 62.9658 46.948C63.3738 46.54 63.7698 46.048 64.1538 45.472C64.4898 44.968 64.8258 44.404 65.1618 43.78C65.4978 43.156 65.7978 42.58 66.0618 42.052C66.3258 41.5 66.5178 41.116 66.6378 40.9C66.7098 40.756 66.8058 40.684 66.9258 40.684C67.0698 40.684 67.2018 40.792 67.3218 41.008C67.4418 41.2 67.4538 41.392 67.3578 41.584C66.9018 42.472 66.4098 43.42 65.8818 44.428C65.3538 45.436 64.7778 46.348 64.1538 47.164C63.0978 48.532 61.8738 49.216 60.4818 49.216C59.4258 49.216 58.6458 48.892 58.1418 48.244C57.6618 47.596 57.4218 46.816 57.4218 45.904C57.4218 45.496 57.4578 45.1 57.5298 44.716C57.2658 45.148 56.9418 45.712 56.5578 46.408C56.1738 47.08 55.7298 47.692 55.2258 48.244C54.7458 48.796 54.2058 49.108 53.6058 49.18C53.5098 49.18 53.4138 49.18 53.3178 49.18C53.2218 49.204 53.1138 49.216 52.9938 49.216ZM54.3258 47.38C54.5658 47.38 54.8778 47.164 55.2618 46.732C55.6698 46.3 56.0778 45.76 56.4858 45.112C56.9178 44.44 57.2898 43.768 57.6018 43.096C57.6738 42.904 57.8418 42.496 58.1058 41.872C58.3938 41.224 58.7058 40.48 59.0418 39.64C59.4018 38.776 59.7618 37.912 60.1218 37.048C60.4818 36.184 60.7938 35.428 61.0578 34.78C61.0818 34.708 61.0938 34.624 61.0938 34.528C61.0938 34.384 61.0218 34.312 60.8778 34.312C60.7338 34.312 60.5658 34.372 60.3738 34.492C60.1818 34.588 60.0018 34.696 59.8338 34.816C59.5218 35.056 59.1138 35.56 58.6098 36.328C58.1298 37.072 57.6138 37.948 57.0618 38.956C56.5338 39.964 56.0298 40.996 55.5498 42.052C55.0698 43.084 54.6738 44.032 54.3618 44.896C54.0738 45.736 53.9298 46.372 53.9298 46.804C53.9298 47.188 54.0618 47.38 54.3258 47.38ZM67.2084 56.164C66.0564 56.188 65.1444 56.032 64.4724 55.696C63.8004 55.36 63.4644 54.832 63.4644 54.112C63.4644 53.464 63.7044 52.9 64.1844 52.42C64.6884 51.964 65.3244 51.556 66.0924 51.196C66.8604 50.86 67.6524 50.572 68.4684 50.332C69.3084 50.092 70.0524 49.888 70.7004 49.72C71.1564 48.496 71.5644 47.32 71.9244 46.192C72.3084 45.064 72.6924 43.912 73.0764 42.736L71.4204 45.688C70.7724 46.648 70.0764 47.476 69.3324 48.172C68.6124 48.868 67.8324 49.156 66.9924 49.036C66.2484 48.916 65.7324 48.616 65.4444 48.136C65.1804 47.632 65.0484 47.068 65.0484 46.444C65.0484 45.7 65.1684 44.932 65.4084 44.14C65.6484 43.324 65.8644 42.628 66.0564 42.052C66.4644 40.876 66.8964 39.736 67.3524 38.632C67.8324 37.528 68.2164 36.7 68.5044 36.148C68.9364 35.308 69.4764 34.744 70.1244 34.456C70.7964 34.168 71.4924 34.024 72.2124 34.024C72.6204 34.024 73.0284 34.06 73.4364 34.132C73.8444 34.18 74.2404 34.24 74.6244 34.312C74.4564 34.36 74.1684 34.66 73.7604 35.212C73.3764 35.764 72.9564 36.448 72.5004 37.264C72.0684 38.056 71.6604 38.872 71.2764 39.712C70.7484 40.888 70.3044 42.004 69.9444 43.06C69.5844 44.116 69.4044 44.884 69.4044 45.364C69.4044 45.676 69.4884 45.832 69.6564 45.832C69.8484 45.832 70.0884 45.664 70.3764 45.328C70.8564 44.704 71.3364 43.948 71.8164 43.06C72.2964 42.172 72.7164 41.38 73.0764 40.684C73.3404 40.132 73.6164 39.52 73.9044 38.848C74.1924 38.152 74.4924 37.48 74.8044 36.832C75.3564 35.776 75.9204 35.008 76.4964 34.528C77.0724 34.048 77.6604 33.76 78.2604 33.664C78.4044 33.64 78.5484 33.628 78.6924 33.628C78.8604 33.604 79.0164 33.592 79.1604 33.592C79.5684 33.592 79.9404 33.628 80.2764 33.7C80.6364 33.748 80.8884 33.796 81.0324 33.844C81.4644 33.988 81.6804 34.156 81.6804 34.348C81.6804 34.444 81.6204 34.528 81.5004 34.6C81.4044 34.648 81.2964 34.672 81.1764 34.672C80.9124 34.672 80.6004 34.912 80.2404 35.392C79.8804 35.848 79.5084 36.436 79.1244 37.156C78.7404 37.852 78.3804 38.584 78.0444 39.352C77.4204 40.744 76.9044 42.172 76.4964 43.636C76.0884 45.1 75.6084 46.588 75.0564 48.1C76.3044 47.332 77.4324 46.3 78.4404 45.004C78.8724 44.476 79.2804 43.888 79.6644 43.24C80.0484 42.568 80.4204 41.896 80.7804 41.224C80.8764 41.032 81.0204 40.936 81.2124 40.936C81.5004 40.936 81.6444 41.092 81.6444 41.404C81.6444 41.452 81.6324 41.5 81.6084 41.548C81.6084 41.596 81.5964 41.644 81.5724 41.692C81.1164 42.652 80.6244 43.54 80.0964 44.356C79.5684 45.148 79.0164 45.856 78.4404 46.48C77.5524 47.44 76.6404 48.22 75.7044 48.82C75.3684 49.06 74.9844 49.276 74.5524 49.468C74.0724 50.644 73.4964 51.736 72.8244 52.744C72.1524 53.752 71.3604 54.568 70.4484 55.192C69.5364 55.816 68.4564 56.14 67.2084 56.164ZM66.1284 54.688C66.8244 54.688 67.5564 54.304 68.3244 53.536C69.0924 52.768 69.7284 51.868 70.2324 50.836C69.5364 51.004 68.7684 51.232 67.9284 51.52C67.1124 51.808 66.4164 52.144 65.8404 52.528C65.2644 52.912 64.9764 53.356 64.9764 53.86C64.9764 54.1 65.0484 54.292 65.1924 54.436C65.3604 54.604 65.6724 54.688 66.1284 54.688ZM88.6231 49.216C88.2871 49.216 87.9631 49.18 87.6511 49.108C87.3631 49.06 87.0151 48.952 86.6071 48.784C86.0791 48.568 85.6951 48.196 85.4551 47.668C85.2151 47.116 85.0951 46.468 85.0951 45.724C85.0951 44.836 85.2391 43.852 85.5271 42.772C85.8391 41.692 86.2351 40.6 86.7151 39.496C87.2671 38.272 87.8911 36.988 88.5871 35.644C89.3071 34.3 90.0871 33.076 90.9271 31.972C91.7911 30.868 92.6911 30.076 93.6271 29.596C93.8911 29.452 94.1911 29.356 94.5271 29.308C94.8631 29.236 95.1991 29.2 95.5351 29.2C96.1831 29.2 96.7951 29.296 97.3711 29.488C97.5871 29.56 97.6951 29.656 97.6951 29.776C97.6951 29.848 97.6231 29.944 97.4791 30.064C97.3111 30.184 96.7711 30.748 95.8591 31.756C94.9711 32.74 93.9751 34.204 92.8711 36.148C92.7511 36.364 92.5831 36.664 92.3671 37.048C92.1751 37.408 91.9711 37.78 91.7551 38.164C91.5631 38.548 91.3951 38.884 91.2511 39.172C91.1071 39.436 91.0351 39.568 91.0351 39.568C91.6591 38.656 92.3071 37.792 92.9791 36.976C93.6751 36.16 94.2991 35.452 94.8511 34.852C95.4031 34.228 95.7871 33.808 96.0031 33.592C96.1951 33.448 96.5071 33.376 96.9391 33.376C97.4431 33.376 97.9591 33.532 98.4871 33.844C99.0151 34.156 99.2791 34.72 99.2791 35.536C99.2791 36.016 99.1471 36.592 98.8831 37.264C98.6191 37.936 98.3191 38.608 97.9831 39.28C97.6471 39.928 97.3711 40.492 97.1551 40.972C97.1071 41.092 96.9751 41.38 96.7591 41.836C96.5431 42.292 96.3151 42.82 96.0751 43.42C95.8351 44.02 95.6191 44.62 95.4271 45.22C95.2591 45.796 95.1751 46.276 95.1751 46.66C95.1751 47.14 95.3311 47.38 95.6431 47.38C95.8591 47.38 96.1231 47.248 96.4351 46.984C96.7471 46.696 97.0351 46.396 97.2991 46.084C97.5871 45.748 97.7911 45.496 97.9111 45.328C98.4151 44.632 98.8711 43.888 99.2791 43.096C99.7111 42.304 100.059 41.644 100.323 41.116C100.419 40.948 100.539 40.864 100.683 40.864C100.851 40.864 100.995 40.936 101.115 41.08C101.235 41.224 101.247 41.392 101.151 41.584C100.767 42.352 100.287 43.228 99.7111 44.212C99.1591 45.172 98.5711 46.048 97.9471 46.84C97.4671 47.44 96.9151 47.98 96.2911 48.46C95.6671 48.916 95.0071 49.144 94.3111 49.144C93.3031 49.144 92.5951 48.832 92.1871 48.208C91.8031 47.584 91.6111 46.768 91.6111 45.76C91.6111 44.968 91.7191 44.176 91.9351 43.384C92.1751 42.592 92.4391 41.8 92.7271 41.008C93.0391 40.144 93.3391 39.364 93.6271 38.668C93.9391 37.972 94.1791 37.504 94.3471 37.264C93.8431 37.624 93.2671 38.188 92.6191 38.956C91.9951 39.7 91.3951 40.564 90.8191 41.548C90.2431 42.532 89.7631 43.528 89.3791 44.536C88.9951 45.544 88.8031 46.48 88.8031 47.344C88.8031 47.944 88.9351 48.4 89.1991 48.712C89.2711 48.784 89.3071 48.856 89.3071 48.928C89.3071 49.12 89.0791 49.216 88.6231 49.216ZM102.542 49.288C101.678 49.288 100.898 49.048 100.202 48.568C99.5056 48.064 99.1576 47.248 99.1576 46.12C99.1576 45.376 99.2776 44.512 99.5176 43.528C99.7816 42.544 100.106 41.536 100.49 40.504C100.874 39.448 101.27 38.476 101.678 37.588C102.11 36.676 102.494 35.932 102.83 35.356C103.358 34.516 103.946 34 104.594 33.808C105.266 33.616 106.082 33.52 107.042 33.52C107.738 33.52 108.314 33.604 108.77 33.772C109.226 33.916 109.298 34.084 108.986 34.276C108.53 34.588 107.942 35.284 107.222 36.364C106.502 37.444 105.806 38.656 105.134 40C104.942 40.384 104.702 40.9 104.414 41.548C104.126 42.172 103.838 42.844 103.55 43.564C103.286 44.26 103.058 44.932 102.866 45.58C102.674 46.204 102.578 46.72 102.578 47.128C102.578 47.728 102.854 48.028 103.406 48.028C103.982 48.028 104.63 47.752 105.35 47.2C105.686 46.936 105.998 46.636 106.286 46.3C106.574 45.964 106.838 45.628 107.078 45.292C107.558 44.644 107.99 43.948 108.374 43.204C108.782 42.436 109.154 41.716 109.49 41.044C109.562 40.9 109.658 40.828 109.778 40.828C109.946 40.828 110.09 40.912 110.21 41.08C110.33 41.248 110.342 41.428 110.246 41.62C109.886 42.34 109.442 43.192 108.914 44.176C108.386 45.136 107.774 46.024 107.078 46.84C106.478 47.536 105.794 48.124 105.026 48.604C104.282 49.06 103.454 49.288 102.542 49.288ZM107.69 31.72C107.282 31.72 106.958 31.588 106.718 31.324C106.478 31.036 106.358 30.664 106.358 30.208C106.358 29.656 106.502 29.152 106.79 28.696C107.078 28.24 107.438 27.868 107.87 27.58C108.302 27.292 108.746 27.148 109.202 27.148C109.61 27.148 109.934 27.292 110.174 27.58C110.414 27.844 110.534 28.18 110.534 28.588C110.534 29.116 110.39 29.62 110.102 30.1C109.814 30.58 109.454 30.976 109.022 31.288C108.59 31.576 108.146 31.72 107.69 31.72Z" fill="white"/>
</svg>
