<svg width="200" height="200" viewBox="0 0 200 200" fill="none" xmlns="http://www.w3.org/2000/svg">
<circle cx="100" cy="100" r="97.5" fill="#081217" stroke="#0E3F42" stroke-width="5"/>
<path d="M57.288 140.776C56.072 140.776 54.792 140.648 53.448 140.392C52.168 140.136 50.888 139.496 49.608 138.472C49.16 138.088 48.936 137.672 48.936 137.224C48.936 136.52 49.32 136.168 50.088 136.168C50.28 136.168 50.568 136.232 50.952 136.36C52.168 136.872 53.32 137.128 54.408 137.128C56.648 137.128 58.696 136.296 60.552 134.632C62.408 133.032 64.104 130.92 65.64 128.296C67.24 125.672 68.68 122.92 69.96 120.04C71.24 117.096 72.36 114.312 73.32 111.688C74.344 109.064 75.208 106.952 75.912 105.352C76.68 103.752 77.416 102.184 78.12 100.648C78.888 99.048 79.624 97.448 80.328 95.848C78.408 98.664 76.584 101.384 74.856 104.008C73.128 106.568 71.944 108.424 71.304 109.576C69.32 112.968 67.208 115.944 64.968 118.504C62.728 121 60.36 122.248 57.864 122.248C57.288 122.248 56.872 122.216 56.616 122.152C51.56 121.192 49.032 118.184 49.032 113.128C49.032 111.528 49.288 109.768 49.8 107.848C50.312 105.928 51.048 103.88 52.008 101.704C52.904 99.72 53.96 97.448 55.176 94.888C56.456 92.328 57.768 89.672 59.112 86.92C60.456 84.168 61.704 81.544 62.856 79.048C64.072 76.488 65.032 74.28 65.736 72.424C66.504 70.568 66.888 69.256 66.888 68.488C66.888 67.912 66.664 67.72 66.216 67.912C65.128 68.296 63.848 69.128 62.376 70.408C60.904 71.688 59.304 73.16 57.576 74.824C55.848 76.488 54.024 78.12 52.104 79.72C50.248 81.256 48.328 82.568 46.344 83.656C44.424 84.68 42.536 85.192 40.68 85.192C40.232 85.192 39.752 85.16 39.24 85.096C38.792 85.032 38.312 84.904 37.8 84.712C36.712 84.328 36.168 83.368 36.168 81.832C36.168 80.36 36.584 78.632 37.416 76.648C38.312 74.6 39.4 72.648 40.68 70.792C41 70.28 41.384 69.928 41.832 69.736C42.28 69.48 42.632 69.352 42.888 69.352C43.4 69.352 43.656 69.576 43.656 70.024C43.656 70.216 43.56 70.472 43.368 70.792C43.304 71.048 43.208 71.272 43.08 71.464C43.016 71.656 42.984 71.816 42.984 71.944C42.984 72.392 43.208 72.712 43.656 72.904C44.104 73.032 44.584 73.096 45.096 73.096C46.44 73.096 48.2 72.648 50.376 71.752C52.552 70.856 54.888 69.768 57.384 68.488C59.944 67.144 62.472 65.832 64.968 64.552C67.528 63.272 69.896 62.28 72.072 61.576C74.248 60.808 76.04 60.552 77.448 60.808C78.088 60.936 78.664 61.256 79.176 61.768C79.752 62.28 80.264 62.856 80.712 63.496C81.416 64.52 81.768 65.576 81.768 66.664C81.768 67.496 81.544 68.392 81.096 69.352C80.648 70.248 80.072 71.336 79.368 72.616C78.6 73.896 77.672 75.432 76.584 77.224C75.56 78.952 74.504 80.776 73.416 82.696C72.392 84.552 71.432 86.312 70.536 87.976C69.704 89.576 69.064 90.92 68.616 92.008C67.336 94.824 66.088 97.608 64.872 100.36C63.656 103.048 62.696 105.416 61.992 107.464C61.352 109.32 61.032 110.728 61.032 111.688C61.032 112.904 61.48 113.512 62.376 113.512C62.824 113.512 63.304 113.384 63.816 113.128C64.392 112.808 64.936 112.456 65.448 112.072C66.216 111.496 67.24 110.344 68.52 108.616C69.864 106.888 71.368 104.776 73.032 102.28C74.696 99.72 76.392 97.032 78.12 94.216C79.912 91.336 81.576 88.52 83.112 85.768C84.712 82.952 86.12 80.392 87.336 78.088C88.552 75.72 89.416 73.832 89.928 72.424C90.952 69.8 91.848 67.72 92.616 66.184C93.384 64.584 94.696 63.784 96.552 63.784H107.016C107.528 63.784 107.784 63.944 107.784 64.264C107.784 64.584 107.496 64.904 106.92 65.224C106.216 65.544 105.224 66.856 103.944 69.16C102.728 71.4 101.352 74.216 99.816 77.608C98.28 81 96.712 84.616 95.112 88.456C93.512 92.232 91.976 95.944 90.504 99.592C89.032 103.176 87.752 106.312 86.664 109C85.64 111.624 84.904 113.448 84.456 114.472C83.24 117.288 81.8 120.232 80.136 123.304C78.536 126.376 76.648 129.224 74.472 131.848C72.36 134.536 69.896 136.68 67.08 138.28C64.264 139.944 61 140.776 57.288 140.776ZM105.811 121.576C104.787 121.576 103.955 121.256 103.315 120.616C102.675 119.912 102.355 119.016 102.355 117.928C102.355 116.648 102.707 115.432 103.411 114.28C104.115 113.128 104.979 112.2 106.003 111.496C107.091 110.728 108.179 110.344 109.267 110.344C110.291 110.344 111.091 110.696 111.667 111.4C112.307 112.104 112.627 113 112.627 114.088C112.627 115.368 112.275 116.584 111.571 117.736C110.867 118.888 110.003 119.816 108.979 120.52C107.955 121.224 106.899 121.576 105.811 121.576ZM137.218 123.304C136.706 123.048 136.002 122.824 135.106 122.632C134.21 122.504 133.41 122.344 132.706 122.152C131.298 121.64 130.242 120.712 129.538 119.368C128.898 118.024 128.578 116.392 128.578 114.472C128.578 111.912 128.994 109 129.826 105.736C130.722 102.472 131.842 99.112 133.186 95.656C134.594 92.136 136.066 88.776 137.602 85.576C139.138 82.376 140.546 79.528 141.826 77.032C143.17 74.536 144.194 72.68 144.898 71.464C142.786 71.784 140.482 72.296 137.986 73C135.554 73.64 133.474 74.44 131.746 75.4C130.018 76.36 129.154 77.512 129.154 78.856C129.154 80.136 129.954 81.384 131.554 82.6C132.066 83.048 132.322 83.464 132.322 83.848C132.322 84.424 132.034 84.776 131.458 84.904C131.266 84.968 130.978 85 130.594 85C129.442 85 128.322 84.552 127.234 83.656C126.21 82.76 125.346 81.576 124.642 80.104C124.002 78.568 123.682 76.968 123.682 75.304C123.682 72.872 124.61 70.472 126.466 68.104C128.322 65.736 131.586 64.104 136.258 63.208C137.41 62.952 139.682 62.696 143.074 62.44C146.466 62.12 150.146 61.96 154.114 61.96C157.634 61.96 161.026 62.152 164.29 62.536C167.618 62.92 170.338 63.592 172.45 64.552C174.626 65.512 175.714 66.888 175.714 68.68C175.714 69.128 175.682 69.672 175.618 70.312C175.554 70.952 175.522 71.464 175.522 71.848V72.04C175.522 72.296 175.426 72.456 175.234 72.52C175.042 72.584 174.882 72.488 174.754 72.232C174.434 71.72 173.506 71.304 171.97 70.984C170.498 70.664 168.61 70.44 166.306 70.312C164.066 70.184 161.634 70.152 159.01 70.216C157.474 72.584 155.682 75.528 153.634 79.048C151.65 82.568 149.634 86.408 147.586 90.568C145.794 94.28 144.13 98.056 142.594 101.896C141.058 105.672 139.81 109.16 138.85 112.36C137.954 115.496 137.506 118.024 137.506 119.944C137.506 121.096 137.698 121.928 138.082 122.44C138.21 122.568 138.274 122.76 138.274 123.016C138.274 123.464 137.922 123.56 137.218 123.304Z" fill="#F39FAA"/>
</svg>
