<svg width="150" height="150" viewBox="0 0 150 150" fill="none" xmlns="http://www.w3.org/2000/svg">
<circle cx="75" cy="75" r="72.5" fill="#081217" stroke="#0E3F42" stroke-width="5"/>
<path d="M47.192 105.184C46.3813 105.184 45.528 105.099 44.632 104.928C43.7787 104.757 42.9253 104.331 42.072 103.648C41.7733 103.392 41.624 103.115 41.624 102.816C41.624 102.347 41.88 102.112 42.392 102.112C42.52 102.112 42.712 102.155 42.968 102.24C43.7787 102.581 44.5467 102.752 45.272 102.752C46.7653 102.752 48.1307 102.197 49.368 101.088C50.6053 100.021 51.736 98.6133 52.76 96.864C53.8267 95.1147 54.7867 93.28 55.64 91.36C56.4933 89.3973 57.24 87.5413 57.88 85.792C58.5627 84.0427 59.1387 82.6347 59.608 81.568C60.12 80.5013 60.6107 79.456 61.08 78.432C61.592 77.3653 62.0827 76.2987 62.552 75.232C61.272 77.1093 60.056 78.9227 58.904 80.672C57.752 82.3787 56.9627 83.616 56.536 84.384C55.2133 86.6453 53.8053 88.6293 52.312 90.336C50.8187 92 49.24 92.832 47.576 92.832C47.192 92.832 46.9147 92.8107 46.744 92.768C43.3733 92.128 41.688 90.1227 41.688 86.752C41.688 85.6853 41.8587 84.512 42.2 83.232C42.5413 81.952 43.032 80.5867 43.672 79.136C44.2693 77.8133 44.9733 76.2987 45.784 74.592C46.6373 72.8853 47.512 71.1147 48.408 69.28C49.304 67.4453 50.136 65.696 50.904 64.032C51.7147 62.3253 52.3547 60.8533 52.824 59.616C53.336 58.3787 53.592 57.504 53.592 56.992C53.592 56.608 53.4427 56.48 53.144 56.608C52.4187 56.864 51.5653 57.4187 50.584 58.272C49.6027 59.1253 48.536 60.1067 47.384 61.216C46.232 62.3253 45.016 63.4133 43.736 64.48C42.4987 65.504 41.2187 66.3787 39.896 67.104C38.616 67.7867 37.3573 68.128 36.12 68.128C35.8213 68.128 35.5013 68.1067 35.16 68.064C34.8613 68.0213 34.5413 67.936 34.2 67.808C33.4747 67.552 33.112 66.912 33.112 65.888C33.112 64.9067 33.3893 63.7547 33.944 62.432C34.5413 61.0667 35.2667 59.7653 36.12 58.528C36.3333 58.1867 36.5893 57.952 36.888 57.824C37.1867 57.6533 37.4213 57.568 37.592 57.568C37.9333 57.568 38.104 57.7173 38.104 58.016C38.104 58.144 38.04 58.3147 37.912 58.528C37.8693 58.6987 37.8053 58.848 37.72 58.976C37.6773 59.104 37.656 59.2107 37.656 59.296C37.656 59.5947 37.8053 59.808 38.104 59.936C38.4027 60.0213 38.7227 60.064 39.064 60.064C39.96 60.064 41.1333 59.7653 42.584 59.168C44.0347 58.5707 45.592 57.8453 47.256 56.992C48.9627 56.096 50.648 55.2213 52.312 54.368C54.0187 53.5147 55.5973 52.8533 57.048 52.384C58.4987 51.872 59.6933 51.7013 60.632 51.872C61.0587 51.9573 61.4427 52.1707 61.784 52.512C62.168 52.8533 62.5093 53.2373 62.808 53.664C63.2773 54.3467 63.512 55.0507 63.512 55.776C63.512 56.3307 63.3627 56.928 63.064 57.568C62.7653 58.1653 62.3813 58.8907 61.912 59.744C61.4 60.5973 60.7813 61.6213 60.056 62.816C59.3733 63.968 58.6693 65.184 57.944 66.464C57.2613 67.7013 56.6213 68.8747 56.024 69.984C55.4693 71.0507 55.0427 71.9467 54.744 72.672C53.8907 74.5493 53.0587 76.4053 52.248 78.24C51.4373 80.032 50.7973 81.6107 50.328 82.976C49.9013 84.2133 49.688 85.152 49.688 85.792C49.688 86.6027 49.9867 87.008 50.584 87.008C50.8827 87.008 51.2027 86.9227 51.544 86.752C51.928 86.5387 52.2907 86.304 52.632 86.048C53.144 85.664 53.8267 84.896 54.68 83.744C55.576 82.592 56.5787 81.184 57.688 79.52C58.7973 77.8133 59.928 76.0213 61.08 74.144C62.2747 72.224 63.384 70.3467 64.408 68.512C65.4747 66.6347 66.4133 64.928 67.224 63.392C68.0347 61.8133 68.6107 60.5547 68.952 59.616C69.6347 57.8667 70.232 56.48 70.744 55.456C71.256 54.3893 72.1307 53.856 73.368 53.856H80.344C80.6853 53.856 80.856 53.9627 80.856 54.176C80.856 54.3893 80.664 54.6027 80.28 54.816C79.8107 55.0293 79.1493 55.904 78.296 57.44C77.4853 58.9333 76.568 60.8107 75.544 63.072C74.52 65.3333 73.4747 67.744 72.408 70.304C71.3413 72.8213 70.3173 75.296 69.336 77.728C68.3547 80.1173 67.5013 82.208 66.776 84C66.0933 85.7493 65.6027 86.9653 65.304 87.648C64.4933 89.5253 63.5333 91.488 62.424 93.536C61.3573 95.584 60.0987 97.4827 58.648 99.232C57.24 101.024 55.5973 102.453 53.72 103.52C51.8427 104.629 49.6667 105.184 47.192 105.184ZM79.5405 92.384C78.8578 92.384 78.3032 92.1707 77.8765 91.744C77.4498 91.2747 77.2365 90.6773 77.2365 89.952C77.2365 89.0987 77.4712 88.288 77.9405 87.52C78.4098 86.752 78.9858 86.1333 79.6685 85.664C80.3938 85.152 81.1192 84.896 81.8445 84.896C82.5272 84.896 83.0605 85.1307 83.4445 85.6C83.8712 86.0693 84.0845 86.6667 84.0845 87.392C84.0845 88.2453 83.8498 89.056 83.3805 89.824C82.9112 90.592 82.3352 91.2107 81.6525 91.68C80.9698 92.1493 80.2658 92.384 79.5405 92.384ZM100.479 93.536C100.137 93.3653 99.6678 93.216 99.0705 93.088C98.4732 93.0027 97.9398 92.896 97.4705 92.768C96.5318 92.4267 95.8278 91.808 95.3585 90.912C94.9318 90.016 94.7185 88.928 94.7185 87.648C94.7185 85.9413 94.9958 84 95.5505 81.824C96.1478 79.648 96.8945 77.408 97.7905 75.104C98.7292 72.7573 99.7105 70.5173 100.735 68.384C101.759 66.2507 102.697 64.352 103.551 62.688C104.447 61.024 105.129 59.7867 105.599 58.976C104.191 59.1893 102.655 59.5307 100.991 60C99.3692 60.4267 97.9825 60.96 96.8305 61.6C95.6785 62.24 95.1025 63.008 95.1025 63.904C95.1025 64.7573 95.6358 65.5893 96.7025 66.4C97.0438 66.6987 97.2145 66.976 97.2145 67.232C97.2145 67.616 97.0225 67.8507 96.6385 67.936C96.5105 67.9787 96.3185 68 96.0625 68C95.2945 68 94.5478 67.7013 93.8225 67.104C93.1398 66.5067 92.5638 65.7173 92.0945 64.736C91.6678 63.712 91.4545 62.6453 91.4545 61.536C91.4545 59.9147 92.0732 58.3147 93.3105 56.736C94.5478 55.1573 96.7238 54.0693 99.8385 53.472C100.607 53.3013 102.121 53.1307 104.383 52.96C106.644 52.7467 109.097 52.64 111.743 52.64C114.089 52.64 116.351 52.768 118.527 53.024C120.745 53.28 122.559 53.728 123.967 54.368C125.417 55.008 126.143 55.9253 126.143 57.12C126.143 57.4187 126.121 57.7813 126.079 58.208C126.036 58.6347 126.015 58.976 126.015 59.232V59.36C126.015 59.5307 125.951 59.6373 125.823 59.68C125.695 59.7227 125.588 59.6587 125.503 59.488C125.289 59.1467 124.671 58.8693 123.647 58.656C122.665 58.4427 121.407 58.2933 119.871 58.208C118.377 58.1227 116.756 58.1013 115.007 58.144C113.983 59.7227 112.788 61.6853 111.423 64.032C110.1 66.3787 108.756 68.9387 107.391 71.712C106.196 74.1867 105.087 76.704 104.062 79.264C103.039 81.7813 102.207 84.1067 101.567 86.24C100.969 88.3307 100.671 90.016 100.671 91.296C100.671 92.064 100.799 92.6187 101.055 92.96C101.14 93.0453 101.183 93.1733 101.183 93.344C101.183 93.6427 100.948 93.7067 100.479 93.536Z" fill="#F39FAA"/>
</svg>
